<?xml version="1.0" encoding="utf-8"?>
<!-- Generator: Adobe Illustrator 24.1.1, SVG Export Plug-In . SVG Version: 6.00 Build 0)  -->
<svg version="1.1" id="Layer_1" xmlns="http://www.w3.org/2000/svg" xmlns:xlink="http://www.w3.org/1999/xlink" x="0px" y="0px"
	 viewBox="0 0 512 512" style="enable-background:new 0 0 512 512;" xml:space="preserve">
<g>
	<path d="M437,75C390.7,28.6,326.7,0,256,0C114.6,0,0,114.6,0,256c0,70.7,28.6,134.7,75,181s110.3,75,181,75
		c141.4,0,256-114.6,256-256C512,185.3,483.4,121.3,437,75z M256,477.9c-122.3,0-221.9-99.5-221.9-221.9S133.7,34.1,256,34.1
		S477.9,133.7,477.9,256S378.3,477.9,256,477.9z"/>
	<path d="M256,145.1c-61.3,0-110.9,49.7-110.9,110.9S194.7,366.9,256,366.9S366.9,317.3,366.9,256
		C366.9,194.8,317.2,145.1,256,145.1z M256,332.8c-42.4,0-76.8-34.4-76.8-76.8s34.4-76.8,76.8-76.8s76.8,34.4,76.8,76.8
		C332.8,298.4,298.4,332.8,256,332.8z"/>
	<rect x="238.9" y="238.9" width="34.1" height="34.1"/>
	<path d="M256,102.4V68.3h-0.6c-31,0-60.1,7.6-85.8,21l1-0.5c-26,13.5-47.7,31.9-64.5,54.2l-0.3,0.5l27.3,20.5
		c28.1-37.5,72.4-61.5,122.3-61.5L256,102.4L256,102.4L256,102.4z"/>
</g>
</svg>
